<svg width="68" height="68" viewBox="0 0 68 68" fill="none" xmlns="http://www.w3.org/2000/svg">
<circle cx="34" cy="34" r="33.5" stroke="white"/>
<path d="M33.9311 22C28.1379 22 28.1379 26.9655 28.1379 26.9655V30.2759H26.4828C24 30.2758 24 30.2758 24 31.931V43.5172C24 46.0001 24 46 26.7304 46H42.1235C44.6897 46.0001 44.6891 46 44.6891 43.4759L44.6897 31.931C44.6897 30.2759 44.6897 30.2759 42.207 30.2758H39.7242V26.9655C39.7242 26.9655 39.7242 22 33.9311 22ZM28.9655 26.9655C28.9655 24.8438 31.0345 22.595 33.9311 22.595C36.8276 22.595 38.8966 24.8438 38.8966 26.9655V30.2758H28.9655V26.9655ZM43.8621 45.1725H34.7587V41.5517C35.5219 41.1066 36.4138 40.4282 36.4138 39.4828C36.4138 38.0679 35.7597 37 34.3449 37C32.93 37 32.2759 38.0679 32.2759 39.4828C32.2759 40.4269 33.1678 41.1066 33.9311 41.5517V45.1725H24.8276V31.1034L43.8615 31.1448L43.8621 45.1725Z" fill="white"/>
</svg>
